<svg xmlns="http://www.w3.org/2000/svg" viewBox="0 0 860 500" enable-background="new 0 0 860 500"><style type="text/css">.st0{opacity:0.9;fill:#FFFFFF;} .st1{fill:#B20000;}</style><path class="st0" d="M533.2 404.5h13.7l-6.9-17.4zM516.7 391.8c0-2.9-1.9-5.2-5.6-5.2h-9.7V397h9.7c3.7-.1 5.6-2.3 5.6-5.2zM511.4 400.5h-9.9v11.1h9.9c3.8 0 6-2.1 6-5.6 0-2.9-2.1-5.5-6-5.5zM321.9 404.5h13.7l-6.8-17.4zM296.5 335.8c.4 1.6.9 3.1 1.6 4.5.7 1.5 1.5 2.7 2.6 3.8 1 1.1 2.2 2 3.6 2.7 1.4.7 3 1 4.8 1 2.2 0 4-.5 5.5-1.5s2.8-2.4 3.7-4.1c1-1.7 1.7-3.8 2.1-6.1.4-2.3.7-4.9.7-7.6 0-2.8-.3-5.5-.9-8-.6-2.5-1.5-4.7-2.6-6.5-1.1-1.9-2.5-3.3-4.2-4.4-1.6-1.1-3.5-1.6-5.5-1.6s-3.8.5-5.4 1.4c-1.6.9-2.9 2.2-3.9 3.8-1.1 1.7-1.9 3.6-2.4 5.9-.5 2.3-.8 4.8-.8 7.6 0 1.3.1 2.8.3 4.3.1 1.7.4 3.3.8 4.8zM394.1 309c-1.9 0-3 .3-3.4.9-.2.3-.4.7-.4 1.4 0 .6-.1 1.5-.1 2.5V338c0 1.9.1 3.4.2 4.6.1 1.2.5 2.1 1.1 2.8.6.7 1.4 1.1 2.3 1.5.9.3 2 .5 3.2.5 2.9 0 5.3-.6 7.3-1.7s3.5-2.6 4.7-4.5c1.2-1.9 2.1-3.9 2.6-6.2.5-2.3.8-4.5.8-6.8 0-6-1.5-10.6-4.6-14-3.2-3.6-7.7-5.2-13.7-5.2zM610.5 309c-.7 0-1.2 0-1.6.1-.4 0-.7.2-.8.4-.2.2-.3.6-.3 1s-.1 1.1-.1 1.9v12.9c0 .6 0 1 .1 1.4.1.3.2.6.5.8.3.2.7.3 1.2.3.6 0 1.3.1 2.3.1 1.2 0 2.2-.2 2.9-.5.8-.3 1.5-.8 2.1-1.4.6-.6 1.1-1.4 1.6-2.5s.8-2.7.8-4.6c0-3-.8-5.4-2.4-7.2-1.6-1.9-3.7-2.7-6.3-2.7zM0 0v500h860V0H0zm336 347.7l2.5-.3c.8-.1 1.3-.3 1.8-.5.4-.2.8-.5 1-1 .2-.5.4-1.1.5-2 .1-.9.1-2.1.1-3.6v-24.7c0-1.5 0-2.8-.1-3.6-.1-.9-.2-1.6-.5-2.1-.2-.5-.6-.8-1-1-.4-.2-1-.3-1.8-.5l-1.9-.3c-.4-.2-.5-.6-.5-1.2s.2-.9.6-1.2c3.4.1 6.8.2 9.9.2 3.2 0 6.5-.1 9.8-.2.3.2.4.6.4 1.2 0 .5-.1.9-.4 1.1l-1.7.3c-.8.1-1.3.3-1.8.5-.4.2-.8.5-1 1-.2.5-.4 1.2-.5 2.1-.1.9-.1 2.1-.1 3.6v23.2c0 1.5.1 2.8.2 3.9.2 1.1.5 1.9.9 2.4.2.3.5.5.8.7.3.2.7.4 1.2.5.5.1 1.2.2 2 .3.8.1 1.8.1 3 .1 1.5 0 2.8-.1 3.8-.2 1.1-.1 2-.4 2.8-.9.8-.5 1.7-1.3 2.5-2.3.8-1.1 1.7-2.6 2.6-4.5.3-.4.7-.5 1.3-.4.6.1 1 .4 1.2.8-.1.9-.2 1.8-.5 2.9-.2 1-.5 2.1-.7 3.1-.3 1-.6 2-.9 2.8-.3.9-.6 1.5-.8 2-.9 0-1.9-.1-3.1-.1h-3.8c-1.3 0-2.7-.1-4.2-.1H341.7c-1.7 0-3.6.1-5.6.2-.3-.2-.5-.6-.5-1.2.1-.4.2-.8.4-1zm-49.4-28.5c1.2-2.8 2.8-5.3 4.9-7.4 2.1-2.1 4.6-3.7 7.5-4.9s6.1-1.8 9.5-1.8c3.4 0 6.6.6 9.4 1.7 2.8 1.1 5.3 2.7 7.4 4.7 2.1 2 3.6 4.4 4.8 7.2 1.1 2.8 1.7 5.9 1.7 9.2 0 3.6-.6 6.9-1.7 9.7-1.1 2.8-2.8 5.3-4.9 7.3-2.1 2-4.6 3.5-7.6 4.6-2.9 1.1-6.2 1.6-9.8 1.6-3.3 0-6.4-.5-9.2-1.6-2.8-1.1-5.3-2.6-7.3-4.5s-3.6-4.3-4.8-7.1c-1.1-2.8-1.7-5.9-1.7-9.4s.6-6.5 1.8-9.3zm-115-12.1c-.1.9-.2 1.9-.3 2.9-.1 1-.2 2.1-.2 3.2v3c-.2.3-.6.5-1.2.5s-1.1-.1-1.2-.3c-.3-1.1-.6-2-.9-2.9-.3-.9-.7-1.7-1.2-2.3-.5-.6-1.1-1.1-1.9-1.5-.8-.4-1.8-.6-3-.6h-4c-.8 0-1.3.1-1.5.3-.2.2-.3.7-.3 1.6v29.2c0 1.5 0 2.8.1 3.6.1.9.2 1.6.5 2 .2.5.6.8 1 1 .4.2 1 .3 1.8.5l2.7.3c.2.2.3.6.3 1.2 0 .5-.1.9-.3 1.1-2.2-.1-4.1-.1-5.8-.2H146.3c-1.8 0-3.9.1-6.2.2-.3-.2-.4-.6-.4-1.1 0-.6.1-1 .4-1.2l3-.3c.8-.1 1.3-.3 1.8-.5.4-.2.8-.5 1-1 .2-.5.4-1.1.5-2 .1-.9.1-2.1.1-3.6V311c0-.8-.1-1.3-.2-1.6-.1-.2-.6-.4-1.4-.4h-4.1c-1.2 0-2.2.2-3 .5-.8.3-1.6.8-2.2 1.4-.6.6-1.1 1.4-1.6 2.4s-.9 2-1.4 3.2c-.4.2-.8.3-1.4.2-.5-.1-.9-.4-1.1-.8.7-2.3 1.2-4.4 1.5-6.4.3-2 .5-3.6.7-4.9.3-.2.6-.3.9-.3.4 0 .7.1.9.3.1.3.2.5.3.7.1.2.4.3.7.4.4.1.9.2 1.6.2.7 0 1.7.1 2.9.1H167c.7 0 1.3-.1 1.7-.2.4-.1.8-.2 1-.4.2-.2.4-.5.6-.8.3-.1.6-.2.9-.2.2 0 .4.1.6.2.2.1.3.2.4.3-.3.6-.5 1.3-.6 2.2zm51.5 42.9c-3.3-.1-6.5-.2-9.6-.2-3.3 0-6.6.1-9.7.2-.3-.2-.4-.6-.4-1.1 0-.6.1-1 .4-1.2l1.5-.2c.8-.1 1.3-.3 1.8-.5.4-.2.8-.5 1-1 .2-.5.4-1.2.5-2.1s.1-2.1.1-3.6v-10.6c0-.3-.1-.5-.3-.6-.2-.1-.5-.2-.8-.2h-17.2c-.4 0-.7.1-.8.2-.2.1-.3.3-.3.6s-.1.6-.1 1.1v9.5c0 1.5 0 2.8.1 3.6.1.9.2 1.6.5 2.1.2.5.6.8 1 1 .4.2 1 .3 1.8.5l2.1.3c.3.2.4.6.4 1.2 0 .5-.1.9-.4 1.1-3.8-.1-7.2-.2-10.1-.2-3.2 0-6.5.1-9.9.2-.3-.2-.4-.6-.4-1.1 0-.6.1-1 .4-1.2l1.6-.2c.8-.1 1.3-.3 1.8-.5.4-.2.8-.5 1-1 .2-.5.4-1.2.5-2.1s.1-2.1.1-3.6v-24.7c0-1.5 0-2.8-.1-3.6s-.2-1.6-.5-2.1c-.2-.5-.6-.8-1-1-.4-.2-1-.4-1.8-.5l-1.6-.2c-.3-.2-.4-.6-.4-1.1 0-.6.1-1 .4-1.2 1.6.1 3.3.1 5 .2h9.5c1.6 0 3.1-.1 4.6-.2.3.2.4.6.4 1.2 0 .5-.1.9-.4 1.1l-1.4.2c-.7.1-1.3.3-1.7.5-.4.2-.8.5-1 1-.2.5-.4 1.2-.5 2.1-.1.9-.1 2.1-.1 3.6v7.7c0 .5 0 .9.1 1.1 0 .3.2.5.3.6.2.1.5.2.8.2h17c.4 0 .7-.1.8-.2.2-.1.3-.3.3-.6v-8.8c0-1.5 0-2.8-.1-3.6s-.2-1.6-.5-2.1c-.2-.5-.6-.8-1-1-.4-.2-1-.3-1.8-.5l-1.8-.3c-.3-.2-.4-.6-.4-1.1 0-.6.1-1 .4-1.2 3.6.1 7 .2 10.1.2 3.2 0 6.3-.1 9.3-.2.3.2.4.6.4 1.2 0 .5-.1.9-.4 1.1l-1.3.2c-.8.1-1.4.3-1.8.5-.5.2-.8.5-1.1 1-.2.5-.4 1.2-.5 2.1-.1.9-.1 2.1-.1 3.6v24.7c0 1.5 0 2.8.1 3.6.1.9.2 1.6.5 2.1.2.5.6.8 1.1 1 .5.2 1.1.3 1.8.5l1.6.3c.3.2.4.6.4 1.2.2.4.1.8-.2 1zm41.3-7.7c-.2 1-.4 2.1-.7 3-.3 1-.6 1.9-.9 2.8-.3.8-.6 1.5-.8 1.9-.9 0-1.9-.1-3.1-.1h-3.8c-1.3 0-2.7-.1-4.2-.1h-17.8c-1.7 0-3.9.1-6.4.2-.3-.2-.4-.6-.4-1.2s.1-.9.4-1.1l3.1-.5c.8-.1 1.3-.2 1.8-.4.4-.2.8-.5 1-1 .2-.5.4-1.1.5-2 .1-.9.1-2.1.1-3.6v-24.7c0-1.5 0-2.7-.1-3.6s-.2-1.6-.5-2c-.2-.5-.6-.8-1-1-.4-.2-1-.3-1.8-.5l-1.7-.3c-.3-.2-.5-.6-.4-1.2 0-.6.2-.9.6-1.2.8 0 1.6.1 2.4.1h2.4c.8 0 1.6.1 2.4.1H257.6c1.7 0 2.7-.1 3.2-.2 0 .3 0 .7.1 1.4s.1 1.5.2 2.5c.1.9.2 2 .3 3.1l.3 3.3c-.1.4-.5.6-1.1.6-.6.1-1-.1-1.4-.4-.4-1.1-.8-2.2-1.2-3.1-.4-.9-.9-1.6-1.3-2.1-.6-.6-1.4-1.1-2.5-1.5-1-.4-2.4-.6-4-.6h-5.3c-.5 0-1 0-1.3.1-.3 0-.5.1-.7.3-.1.2-.2.4-.2.8v13.1c0 .9.1 1.5.3 1.7.2.2.7.3 1.6.3h4.6c.8 0 1.5 0 2.1-.1.6-.1 1-.3 1.4-.5.4-.2.6-.6.9-1.1.2-.5.4-1.1.6-1.9l.3-1.7c.1-.1.3-.2.5-.3.2-.1.5-.1.7-.1.3 0 .5 0 .7.1.2.1.4.2.5.3-.1 2.1-.2 4.5-.2 7 0 2.6.1 4.9.2 7-.1.1-.2.2-.5.3-.2.1-.5.1-.7.1-.3 0-.5 0-.7-.1-.2-.1-.4-.2-.5-.3l-.3-1.7c-.2-.8-.4-1.4-.6-1.9-.2-.5-.5-.9-.9-1.1-.4-.3-.8-.4-1.4-.5-.6-.1-1.2-.1-2.1-.1h-4.6c-.9 0-1.4.1-1.6.3-.2.2-.3.8-.3 1.8v7.9c0 1.5.1 2.8.2 3.9.2 1 .4 1.8.8 2.4.2.3.5.6.8.8.3.2.7.4 1.2.5.5.1 1.2.2 2 .3.8.1 1.8.1 3 .1 1.5 0 2.7 0 3.7-.1s2-.4 2.9-.9 1.7-1.3 2.5-2.3 1.6-2.5 2.6-4.3c.3-.4.7-.5 1.3-.4.6.1 1 .3 1.1.7-.1 1-.2 2-.4 3zm44.7 72.9h-4v-14.8h-18.9v14.8h-4V383h4v13.9h18.9V383h4v32.2zm30.6 0l-2.9-7.2h-16.1l-2.9 7.2h-4.6l13-32.3h5l13 32.3h-4.5zm35.5 0h-4.4l-7.1-26-7.1 26h-4.4l-9.2-32.3h4.4l7.2 26.9 7.4-26.9h3.3l7.4 26.9L380 383h4.5l-9.3 32.2zm33.2 0l-12.2-14.5-3.2 3.7v10.8h-4V383h4v16.7l14.3-16.7h5l-13.5 15.3 14.6 16.9h-5zm2.8-68.1c-2.3 1.1-4.7 2-7.5 2.4-2.7.5-5.8.7-9.3.7-.8 0-1.5 0-2.4-.1-.8 0-1.6-.1-2.4-.1-1.5-.1-2.8-.2-4.1-.2-3.1 0-6.6.1-10.3.2-.3-.2-.4-.6-.4-1.2s.1-.9.4-1.1l2.1-.3c.8-.1 1.3-.3 1.8-.5.4-.2.8-.5 1-1 .2-.5.4-1.2.5-2 .1-.9.1-2.1.1-3.6v-23.5c0-1.6 0-2.9-.1-3.8 0-1-.2-1.7-.4-2.3-.2-.6-.5-1-1-1.2-.4-.2-1-.4-1.8-.5l-1.3-.1c-.2-.1-.3-.3-.4-.5-.1-.2-.1-.5-.1-.8 0-.3 0-.5.1-.7.1-.2.2-.3.5-.3 1.4-.1 2.7-.2 4.1-.2 1.4-.1 2.8-.1 4.2-.2 1.4-.1 2.9-.1 4.5-.1h5c2.7 0 5.4.2 8.1.5 2.6.3 5.1.9 7.4 1.7 2.2.8 4.1 1.9 5.8 3.2 1.7 1.3 3.1 2.8 4.2 4.5 1.1 1.7 2 3.5 2.6 5.5.6 2 .9 4 .9 6.1 0 4.5-1 8.4-3 11.8s-5 5.8-8.8 7.7zm27.9 39.4H422v10.4h16.8v3.6H422v11.1h17.1v3.6H418V383h21.1v3.5zm-3.9-118.9c-1.2 1.5-3.1 2.5-5.2 2.5s-4-1-5.2-2.5c-3.7-1.3-6.3-4.8-6.3-9 0-1.9.5-3.6 1.5-5.1l4-13.6c.8-2.7 1.2-5.5 1.1-8.4 0 0-.4-11.5-.4-15.3-.1-10.3 1.4-27.7 1.9-42.3-17 1.8-56.1 4.8-67.3-4.7-.5-.4-.7-1.1-.7-1.8 0-1.3 1.2-2.4 2.5-2.4 35.9-1.1 56-.4 65.7.3 0-3-1.5-5.8-1.5-8.1 0-5.4-4.7-8.3-5.4-13.6-2.1-14.5 1.6-58.7 1.6-58.7 0-.5.4-.8.8-.8.5 0 .8.4.8.8l-.7 45.1c0 .9.7 1.6 1.6 1.6.9 0 1.6-.7 1.6-1.6l1.2-45.1c0-.5.4-.8.8-.8.5 0 .8.4.8.8l-.1 45.1c0 .9.7 1.6 1.6 1.6.9 0 1.6-.7 1.6-1.6V85c0-.5.4-.8.8-.8s.8.4.8.8l1.2 45.1c0 .9.7 1.6 1.6 1.6.9 0 1.6-.7 1.6-1.6l-.6-45.1c0-.5.4-.8.8-.8s.8.4.8.8c0 0 2.8 44.1 1.6 58.7-.4 5.3-5.4 8-5.4 13.6 0 2.4-1.5 5.1-1.5 8.2v.6c.8.1 1.2.2 1.2.2 6.9 0 25.7-1.2 31.2-1.3h3l8.5.4c1.6.1 3.2 0 4.8-.3l10.3-1.9c.6-.2 1.2-.3 1.9-.3 2 0 3.7 1.1 4.6 2.7 1.6.9 2.7 2.6 2.7 4.6 0 2-1.1 3.7-2.7 4.6-.9 1.6-2.6 2.7-4.6 2.7-.7 0-1.3-.1-1.9-.3L482 175c-1.6-.3-3.2-.4-4.8-.3l-8.3.4c-1.2.1-2.5.1-3.7 0l-30.7-2.1s-.4 0-1 .1c.6 14.8 2 32.7 2 43.1 0 3.8-.4 15.3-.4 15.3-.1 2.8.3 5.6 1.1 8.4l4 13.6c.9 1.5 1.5 3.2 1.5 5.1-.2 4.1-2.8 7.6-6.5 9zm11.1 125.9l-1.8-1.5c1.6-1 3-3 3.1-4.5-.1 0-.4.1-.7.1-1.4 0-2.3-1-2.3-2.5 0-1.4 1.1-2.6 2.6-2.6 1.6 0 3 1.3 3 3.7 0 2.9-1.7 5.7-3.9 7.3zm20.8 22.3c-5.6 0-9.7-2.1-12.4-5.1l2.4-3c2.1 2.4 5.6 4.6 10.2 4.6 5.8 0 7.6-3.1 7.6-5.6 0-8.3-19.1-3.7-19.1-15.2 0-5.3 4.7-9 11.1-9 4.9 0 8.8 1.6 11.5 4.5l-2.4 3c-2.4-2.7-5.8-3.9-9.3-3.9-3.9 0-6.6 2.1-6.6 5.1 0 7.3 19.1 3.1 19.1 15.1-.2 4.7-3.4 9.5-12.1 9.5zm19.6-71.3c-.5 1.9-1 3.2-1.5 3.9-1.8.5-3.9 1-6.1 1.6-2.3.6-4.7.9-7.3.9-3.3 0-6.5-.4-9.6-1.2-3.1-.8-5.9-2.1-8.3-3.8-2.4-1.8-4.4-4.1-6-7-1.6-2.8-2.4-6.3-2.4-10.4 0-4.1.8-7.5 2.3-10.4 1.5-2.9 3.4-5.3 5.7-7.2 2.4-2 5.2-3.5 8.4-4.4 3.2-1 6.5-1.5 10-1.5 1.7 0 3.2.1 4.7.3 1.5.2 2.8.4 3.9.6 1.1.2 2.2.4 3 .6.9.2 1.5.3 2 .3v1.6c0 .8.1 1.6.1 2.6.1 1 .2 2 .3 3.1.1 1.1.2 2.1.4 3.1-.1.2-.2.4-.5.5-.2.1-.5.2-.7.2h-.8c-.2 0-.4-.1-.6-.3-.9-3.1-2.4-5.4-4.5-7.1-2.1-1.6-4.8-2.4-8-2.4-1.9 0-3.7.4-5.5 1.2-1.8.8-3.4 2-4.9 3.6-1.4 1.6-2.6 3.6-3.5 6.1-.9 2.4-1.4 5.3-1.4 8.6s.4 6.2 1.3 8.7c.9 2.5 2 4.6 3.5 6.3 1.4 1.7 3.1 3 5 3.9 1.9.9 3.8 1.3 5.8 1.3s3.7-.3 5.2-1c1.5-.6 2.8-1.5 3.9-2.5s2-2.1 2.7-3.3c.7-1.2 1.3-2.4 1.7-3.5.3-.3.7-.4 1.3-.3.6.1 1 .3 1.2.7.1 2.6-.3 4.8-.8 6.6zm4.1 4.4c0-.6.1-1 .4-1.2l1.6-.2c.8-.1 1.3-.3 1.8-.5.4-.2.8-.5 1-1 .2-.5.4-1.2.5-2.1.1-.9.1-2.1.1-3.6v-24.7c0-1.5 0-2.8-.1-3.6-.1-.9-.2-1.6-.5-2.1-.2-.5-.6-.8-1-1-.4-.2-1-.4-1.8-.5l-1.6-.2c-.3-.2-.4-.6-.4-1.1 0-.6.1-1 .4-1.2 1.6.1 3.3.1 5 .2h9.5c1.6 0 3.1-.1 4.6-.2.3.2.4.6.4 1.2 0 .5-.1.9-.4 1.1l-1.4.2c-.7.1-1.3.3-1.7.5-.4.2-.8.5-1 1-.2.5-.4 1.2-.5 2.1s-.1 2.1-.1 3.6v7.7c0 .5 0 .9.1 1.1 0 .3.2.5.3.6.2.1.5.2.8.2h17c.4 0 .7-.1.8-.2.2-.1.3-.3.3-.6v-8.8c0-1.5 0-2.8-.1-3.6-.1-.9-.2-1.6-.5-2.1-.2-.5-.6-.8-1-1-.4-.2-1-.3-1.8-.5l-1.8-.3c-.3-.2-.4-.6-.4-1.1 0-.6.1-1 .4-1.2 3.6.1 7 .2 10.1.2 3.2 0 6.3-.1 9.3-.2.3.2.4.6.4 1.2 0 .5-.1.9-.4 1.1l-1.3.2c-.8.1-1.4.3-1.8.5-.5.2-.8.5-1.1 1-.2.5-.4 1.2-.5 2.1-.1.9-.1 2.1-.1 3.6v24.7c0 1.5 0 2.8.1 3.6.1.9.2 1.6.5 2.1.2.5.6.8 1.1 1 .5.2 1.1.3 1.8.5l1.6.3c.3.2.4.6.4 1.2 0 .5-.1.9-.4 1.1-3.3-.1-6.5-.2-9.6-.2-3.3 0-6.6.1-9.7.2-.3-.2-.4-.6-.4-1.1 0-.6.1-1 .4-1.2l1.5-.2c.8-.1 1.3-.3 1.8-.5.4-.2.8-.5 1-1 .2-.5.4-1.2.5-2.1.1-.9.1-2.1.1-3.6v-10.6c0-.3-.1-.5-.3-.6-.2-.1-.5-.2-.8-.2h-17c-.4 0-.7.1-.8.2-.2.1-.3.3-.3.6s-.1.6-.1 1.1v9.5c0 1.5 0 2.8.1 3.6s.2 1.6.5 2.1c.2.5.6.8 1 1 .4.2 1 .3 1.8.5l2.1.3c.3.2.4.6.4 1.2 0 .5-.1.9-.4 1.1-3.8-.1-7.2-.2-10.1-.2-3.2 0-6.5.1-9.9.2-.3-.3-.4-.7-.4-1.2zm21.4 66.3h-14.7V383h14.4c5.6 0 9 3.4 9 8.2 0 4.1-2.7 6.8-5.7 7.4 3.4.5 6.3 4.1 6.3 7.9 0 5.2-3.4 8.7-9.3 8.7zm38.7 0L548 408h-16l-2.9 7.2h-4.6l13-32.3h5l13 32.3h-4.6zm19.2-13.6v13.6h-4v-13.6L553.3 383h4.7l10 15 10-15h4.7l-12.6 18.6zm20.3-93.4l-1.2.3c-.9.2-1.6.5-2.2.7-.6.3-1.1.8-1.4 1.5-.4.9-.6 2.5-.8 4.7-.2 2.3-.2 4.7-.2 7.4v7.4c0 3.1-.3 6.1-.8 8.8-.5 2.7-1.7 5.1-3.5 7.2-1.5 1.5-3.3 2.7-5.6 3.5-2.3.8-4.8 1.2-7.5 1.2-2.5 0-4.9-.3-7.1-.8s-4.2-1.5-6-2.9c-1.7-1.4-3-3.4-3.7-5.8-.8-2.5-1.2-5.5-1.2-9.1v-16.6c0-1.5 0-2.8-.1-3.6-.1-.9-.2-1.6-.5-2.1-.2-.5-.6-.8-1-1-.4-.2-1-.3-1.8-.5l-1.7-.3c-.3-.2-.4-.6-.4-1.1 0-.5.2-.9.5-1.1 3.2.1 6.4.2 9.7.2 3.3 0 6.5-.1 9.7-.2.3.2.4.6.4 1.1 0 .5-.1.9-.4 1.1l-1.6.3c-.8.1-1.3.3-1.8.5-.4.2-.8.5-1 1-.2.5-.4 1.2-.5 2.1-.1.9-.1 2.1-.1 3.6V331c0 1.9.1 3.9.3 5.8.2 1.9.7 3.7 1.4 5.2s1.8 2.8 3.3 3.8c1.5 1 3.4 1.5 6 1.5 2.1 0 3.9-.4 5.3-1.3s2.6-2 3.4-3.5c.9-1.5 1.5-3.3 1.8-5.3.4-2 .5-4.1.5-6.4v-8c0-2.7-.1-5.2-.2-7.4-.2-2.3-.4-3.8-.8-4.7-.3-.7-.8-1.2-1.5-1.5-.7-.3-1.5-.5-2.4-.7l-1.8-.3c-.3-.3-.4-.7-.4-1.2s.1-.9.4-1.1c1.8.1 3.4.1 4.8.2h4.1c2.4 0 4.9-.1 7.4-.2.2.2.3.6.4 1.1.2.5 0 .9-.2 1.2zm46.5 41.4c-.5.2-1.3.4-2.3.5-1 .1-2 .1-3 .1-3 0-5.6-.6-7.6-1.7s-3.8-2.9-5.2-5.3c-1.1-1.8-2-3.5-2.8-5.1l-2.4-5.1c-.4-.9-.9-1.5-1.4-1.8-.6-.3-1.2-.5-2.1-.5-1.1 0-1.8.1-2.1.2-.2.2-.4.6-.4 1.2v8.1c0 1.5 0 2.8.1 3.6.1.9.2 1.5.5 2 .2.5.6.8 1 1 .4.2 1 .3 1.8.5l1.8.3c.2.2.3.6.3 1.1 0 .6-.1 1-.3 1.2-1.8-.1-3.4-.1-5-.2h-9.5c-1.5 0-3.1.1-4.9.2-.3-.2-.4-.6-.4-1.2s.1-.9.4-1.1l1.8-.3c.8-.1 1.3-.3 1.8-.5.4-.2.8-.5 1-1 .2-.5.4-1.2.5-2 .1-.9.1-2.1.1-3.6v-23.5c0-1.6 0-2.9-.1-3.9 0-1-.2-1.8-.4-2.3-.2-.5-.5-.9-.9-1.1-.4-.2-.9-.3-1.6-.4l-1.8-.3c-.4-.2-.5-.6-.5-1.2s.2-1 .6-1.2c2.5-.2 5.1-.3 7.7-.4 2.6-.1 5.5-.2 8.7-.2 2.8 0 5.4.2 7.7.6 2.3.4 4.1 1 5.3 1.8 3.9 2.3 5.8 5.6 5.8 9.8 0 1.5-.2 2.7-.7 3.8-.4 1.1-1 2-1.7 2.8-.7.8-1.4 1.4-2.3 2-.8.5-1.6 1-2.4 1.4-.4.2-.5.4-.6.6 0 .2.1.5.2.9 2.2 4.5 4 8 5.6 10.6 1.5 2.6 3.1 4.6 4.7 6 .9.7 1.7 1.2 2.5 1.4.8.2 1.4.4 1.9.4.3.2.5.5.5.8.3.5.3.8.1 1zm40-5.1c-.5 1.9-1 3.2-1.5 3.9-1.8.5-3.9 1-6.1 1.6-2.3.6-4.7.9-7.3.9-3.3 0-6.5-.4-9.6-1.2-3.1-.8-5.9-2.1-8.3-3.8-2.4-1.8-4.4-4.1-6-7-1.6-2.8-2.4-6.3-2.4-10.4 0-4.1.8-7.5 2.3-10.4 1.5-2.9 3.4-5.3 5.7-7.2 2.4-2 5.2-3.5 8.4-4.4 3.2-1 6.5-1.5 10-1.5 1.7 0 3.2.1 4.7.3 1.5.2 2.8.4 3.9.6 1.1.2 2.2.4 3 .6.9.2 1.5.3 2 .3v1.6c0 .8.1 1.6.1 2.6.1 1 .2 2 .3 3.1.1 1.1.2 2.1.4 3.1-.1.2-.2.4-.5.5-.2.1-.5.2-.7.2h-.8c-.2 0-.4-.1-.6-.3-.9-3.1-2.4-5.4-4.5-7.1-2.1-1.6-4.8-2.4-8-2.4-1.9 0-3.7.4-5.5 1.2-1.8.8-3.4 2-4.9 3.6-1.4 1.6-2.6 3.6-3.5 6.1-.9 2.4-1.4 5.3-1.4 8.6s.4 6.2 1.3 8.7c.9 2.5 2 4.6 3.5 6.3 1.4 1.7 3.1 3 5 3.9 1.9.9 3.8 1.3 5.8 1.3s3.7-.3 5.2-1c1.5-.6 2.8-1.5 3.9-2.5s2-2.1 2.7-3.3c.7-1.2 1.3-2.4 1.7-3.5.3-.3.7-.4 1.3-.3.6.1 1 .3 1.2.7 0 2.6-.4 4.8-.8 6.6zm52.7 5.5c-3.3-.1-6.5-.2-9.6-.2-3.3 0-6.6.1-9.7.2-.3-.2-.4-.6-.4-1.1 0-.6.1-1 .4-1.2l1.5-.2c.8-.1 1.3-.3 1.8-.5.4-.2.8-.5 1-1 .2-.5.4-1.2.5-2.1.1-.9.1-2.1.1-3.6v-10.6c0-.3-.1-.5-.3-.6-.2-.1-.5-.2-.8-.2h-17c-.4 0-.7.1-.8.2-.2.1-.3.3-.3.6s-.1.6-.1 1.1v9.5c0 1.5 0 2.8.1 3.6.1.9.2 1.6.5 2.1.2.5.6.8 1 1 .4.2 1 .3 1.8.5l2.1.3c.3.2.4.6.4 1.2 0 .5-.1.9-.4 1.1-3.8-.1-7.2-.2-10.1-.2-3.2 0-6.5.1-9.9.2-.3-.2-.4-.6-.4-1.1 0-.6.1-1 .4-1.2l1.6-.2c.8-.1 1.3-.3 1.8-.5.4-.2.8-.5 1-1 .2-.5.4-1.2.5-2.1.1-.9.1-2.1.1-3.6v-24.7c0-1.5 0-2.8-.1-3.6-.1-.9-.2-1.6-.5-2.1-.2-.5-.6-.8-1-1-.4-.2-1-.4-1.8-.5l-1.6-.2c-.3-.2-.4-.6-.4-1.1 0-.6.1-1 .4-1.2 1.6.1 3.3.1 5 .2h9.5c1.6 0 3.1-.1 4.6-.2.3.2.4.6.4 1.2 0 .5-.1.9-.4 1.1l-1.4.2c-.7.1-1.3.3-1.7.5-.4.2-.8.5-1 1-.2.5-.4 1.2-.5 2.1-.1.9-.1 2.1-.1 3.6v7.7c0 .5 0 .9.1 1.1 0 .3.2.5.3.6.2.1.5.2.8.2h17c.4 0 .7-.1.8-.2.2-.1.3-.3.3-.6v-8.8c0-1.5 0-2.8-.1-3.6-.1-.9-.2-1.6-.5-2.1-.2-.5-.6-.8-1-1-.4-.2-1-.3-1.8-.5l-1.8-.3c-.3-.2-.4-.6-.4-1.1 0-.6.1-1 .4-1.2 3.6.1 7 .2 10.1.2 3.2 0 6.3-.1 9.3-.2.3.2.4.6.4 1.2 0 .5-.1.9-.4 1.1l-1.3.2c-.8.1-1.4.3-1.8.5-.5.2-.8.5-1.1 1-.2.5-.4 1.2-.5 2.1-.1.9-.1 2.1-.1 3.6v24.7c0 1.5 0 2.8.1 3.6.1.9.2 1.6.5 2.1.2.5.6.8 1.1 1 .5.2 1.1.3 1.8.5l1.6.3c.3.2.4.6.4 1.2 0 .4-.1.8-.4 1z"/><path class="st1" d="M492.3 163l-10.3 1.9c-1.6.3-3.2.4-4.8.3l-8.5-.4c-1-.1-2-.1-3 0-5.5.2-24.2 1.3-31.2 1.3 0 0-17.3-2.8-73.4-1.1-1.3 0-2.5 1.1-2.5 2.4 0 .7.2 1.3.7 1.8 14.4 12.2 75.3 3.8 75.3 3.8l30.7 2.1c1.2.1 2.5.1 3.7 0l8.3-.4c1.6-.1 3.2 0 4.8.3l10.3 1.9c.6.2 1.2.3 1.9.3 2 0 3.7-1.1 4.6-2.7 1.6-.9 2.7-2.6 2.7-4.6 0-2-1.1-3.7-2.7-4.6-.9-1.6-2.6-2.7-4.6-2.7-.8.1-1.4.2-2 .4zM440.1 253.5l-4-13.6c-.8-2.7-1.2-5.5-1.1-8.4 0 0 .4-11.5.4-15.3.1-12.3-2-35.1-2.2-50.8 0-3.1 1.5-5.7 1.5-8.2 0-5.6 5-8.3 5.4-13.6 1.2-14.6-1.6-58.7-1.6-58.7 0-.5-.4-.8-.8-.8-.5 0-.8.4-.8.8l.7 45.1c0 .9-.7 1.6-1.6 1.6s-1.6-.7-1.6-1.6l-1.3-45c0-.5-.4-.8-.8-.8-.5 0-.8.4-.8.8l.1 45.1c0 .9-.7 1.6-1.6 1.6s-1.6-.7-1.6-1.6l.1-45.1c0-.5-.4-.8-.8-.8-.5 0-.8.4-.8.8l-1.2 45.1c0 .9-.7 1.6-1.6 1.6s-1.6-.7-1.6-1.6l.7-45.1c0-.5-.4-.8-.8-.8-.5 0-.8.4-.8.8 0 0-3.8 44.2-1.6 58.7.8 5.3 5.4 8.2 5.4 13.6 0 2.4 1.5 5.2 1.5 8.2-.2 15.7-2.3 38.4-2.2 50.8 0 3.8.4 15.3.4 15.3.1 2.8-.3 5.6-1.1 8.4l-4 13.6c-.9 1.5-1.5 3.2-1.5 5.1 0 4.1 2.6 7.7 6.3 9 1.2 1.5 3.1 2.4 5.2 2.4s4-1 5.2-2.4c3.7-1.3 6.3-4.8 6.3-9 0-2-.5-3.7-1.4-5.2z"/></svg>