<?xml version="1.0" encoding="utf-8"?>
<!-- Generator: Adobe Illustrator 18.1.0, SVG Export Plug-In . SVG Version: 6.00 Build 0)  -->
<!DOCTYPE svg PUBLIC "-//W3C//DTD SVG 1.1//EN" "http://www.w3.org/Graphics/SVG/1.1/DTD/svg11.dtd">
<svg version="1.1" id="Layer_2" xmlns="http://www.w3.org/2000/svg" xmlns:xlink="http://www.w3.org/1999/xlink" x="0px" y="0px"
	 viewBox="0 0 860 500" style="enable-background:new 0 0 860 500;" xml:space="preserve">
<style type="text/css">
	.st0{opacity:0.9;fill:#FFFFFF;}
	.st1{fill:#B20000;}
</style>
<g>
	<polygon class="st0" points="533.2,404.5 546.9,404.5 540,387.1 	"/>
	<path class="st0" d="M516.7,391.8c0-2.9-1.9-5.2-5.6-5.2h-9.7v10.4h9.7C514.8,396.9,516.7,394.7,516.7,391.8z"/>
	<path class="st0" d="M511.4,400.5h-9.9v11.1h9.9c3.8,0,6-2.1,6-5.6C517.4,403.1,515.3,400.5,511.4,400.5z"/>
	<polygon class="st0" points="321.9,404.5 335.6,404.5 328.8,387.1 	"/>
	<path class="st0" d="M296.5,335.8c0.4,1.6,0.9,3.1,1.6,4.5c0.7,1.5,1.5,2.7,2.6,3.8c1,1.1,2.2,2,3.6,2.7c1.4,0.7,3,1,4.8,1
		c2.2,0,4-0.5,5.5-1.5c1.5-1,2.8-2.4,3.7-4.1c1-1.7,1.7-3.8,2.1-6.1c0.4-2.3,0.7-4.9,0.7-7.6c0-2.8-0.3-5.5-0.9-8
		c-0.6-2.5-1.5-4.7-2.6-6.5c-1.1-1.9-2.5-3.3-4.2-4.4c-1.6-1.1-3.5-1.6-5.5-1.6s-3.8,0.5-5.4,1.4c-1.6,0.9-2.9,2.2-3.9,3.8
		c-1.1,1.7-1.9,3.6-2.4,5.9c-0.5,2.3-0.8,4.8-0.8,7.6c0,1.3,0.1,2.8,0.3,4.3C295.8,332.7,296.1,334.3,296.5,335.8z"/>
	<path class="st0" d="M394.1,309c-1.9,0-3,0.3-3.4,0.9c-0.2,0.3-0.4,0.7-0.4,1.4c0,0.6-0.1,1.5-0.1,2.5v24.2c0,1.9,0.1,3.4,0.2,4.6
		c0.1,1.2,0.5,2.1,1.1,2.8c0.6,0.7,1.4,1.1,2.3,1.5c0.9,0.3,2,0.5,3.2,0.5c2.9,0,5.3-0.6,7.3-1.7c2-1.1,3.5-2.6,4.7-4.5
		c1.2-1.9,2.1-3.9,2.6-6.2c0.5-2.3,0.8-4.5,0.8-6.8c0-6-1.5-10.6-4.6-14C404.6,310.6,400.1,309,394.1,309z"/>
	<path class="st0" d="M610.5,309c-0.7,0-1.2,0-1.6,0.1c-0.4,0-0.7,0.2-0.8,0.4c-0.2,0.2-0.3,0.6-0.3,1c0,0.4-0.1,1.1-0.1,1.9v12.9
		c0,0.6,0,1,0.1,1.4c0.1,0.3,0.2,0.6,0.5,0.8c0.3,0.2,0.7,0.3,1.2,0.3c0.6,0,1.3,0.1,2.3,0.1c1.2,0,2.2-0.2,2.9-0.5
		c0.8-0.3,1.5-0.8,2.1-1.4c0.6-0.6,1.1-1.4,1.6-2.5c0.5-1.1,0.8-2.7,0.8-4.6c0-3-0.8-5.4-2.4-7.2C615.2,309.8,613.1,309,610.5,309z"
		/>
	<path class="st0" d="M0,0v500h860V0H0z M336,347.7l2.5-0.3c0.8-0.1,1.3-0.3,1.8-0.5c0.4-0.2,0.8-0.5,1-1c0.2-0.5,0.4-1.1,0.5-2
		c0.1-0.9,0.1-2.1,0.1-3.6v-24.7c0-1.5,0-2.8-0.1-3.6c-0.1-0.9-0.2-1.6-0.5-2.1c-0.2-0.5-0.6-0.8-1-1c-0.4-0.2-1-0.3-1.8-0.5
		l-1.9-0.3c-0.4-0.2-0.5-0.6-0.5-1.2c0-0.6,0.2-0.9,0.6-1.2c3.4,0.1,6.8,0.2,9.9,0.2c3.2,0,6.5-0.1,9.8-0.2c0.3,0.2,0.4,0.6,0.4,1.2
		c0,0.5-0.1,0.9-0.4,1.1l-1.7,0.3c-0.8,0.1-1.3,0.3-1.8,0.5c-0.4,0.2-0.8,0.5-1,1c-0.2,0.5-0.4,1.2-0.5,2.1
		c-0.1,0.9-0.1,2.1-0.1,3.6v23.2c0,1.5,0.1,2.8,0.2,3.9c0.2,1.1,0.5,1.9,0.9,2.4c0.2,0.3,0.5,0.5,0.8,0.7c0.3,0.2,0.7,0.4,1.2,0.5
		c0.5,0.1,1.2,0.2,2,0.3c0.8,0.1,1.8,0.1,3,0.1c1.5,0,2.8-0.1,3.8-0.2c1.1-0.1,2-0.4,2.8-0.9c0.8-0.5,1.7-1.3,2.5-2.3
		c0.8-1.1,1.7-2.6,2.6-4.5c0.3-0.4,0.7-0.5,1.3-0.4c0.6,0.1,1,0.4,1.2,0.8c-0.1,0.9-0.2,1.8-0.5,2.9c-0.2,1-0.5,2.1-0.7,3.1
		c-0.3,1-0.6,2-0.9,2.8c-0.3,0.9-0.6,1.5-0.8,2c-0.9,0-1.9-0.1-3.1-0.1c-1.2,0-2.5,0-3.8,0c-1.3,0-2.7-0.1-4.2-0.1
		c-1.4,0-2.8,0-4.2,0h-8.9c-1.5,0-3.2,0-4.8,0c-1.7,0-3.6,0.1-5.6,0.2c-0.3-0.2-0.5-0.6-0.5-1.2C335.7,348.3,335.8,347.9,336,347.7z
		 M286.6,319.2c1.2-2.8,2.8-5.3,4.9-7.4c2.1-2.1,4.6-3.7,7.5-4.9s6.1-1.8,9.5-1.8c3.4,0,6.6,0.6,9.4,1.7c2.8,1.1,5.3,2.7,7.4,4.7
		c2.1,2,3.6,4.4,4.8,7.2c1.1,2.8,1.7,5.9,1.7,9.2c0,3.6-0.6,6.9-1.7,9.7c-1.1,2.8-2.8,5.3-4.9,7.3c-2.1,2-4.6,3.5-7.6,4.6
		c-2.9,1.1-6.2,1.6-9.8,1.6c-3.3,0-6.4-0.5-9.2-1.6c-2.8-1.1-5.3-2.6-7.3-4.5c-2-1.9-3.6-4.3-4.8-7.1c-1.1-2.8-1.7-5.9-1.7-9.4
		C284.8,325,285.4,322,286.6,319.2z M171.6,307.1c-0.1,0.9-0.2,1.9-0.3,2.9c-0.1,1-0.2,2.1-0.2,3.2s0,2.1,0,3
		c-0.2,0.3-0.6,0.5-1.2,0.5c-0.6,0-1.1-0.1-1.2-0.3c-0.3-1.1-0.6-2-0.9-2.9c-0.3-0.9-0.7-1.7-1.2-2.3c-0.5-0.6-1.1-1.1-1.9-1.5
		c-0.8-0.4-1.8-0.6-3-0.6h-4c-0.8,0-1.3,0.1-1.5,0.3c-0.2,0.2-0.3,0.7-0.3,1.6v29.2c0,1.5,0,2.8,0.1,3.6c0.1,0.9,0.2,1.6,0.5,2
		c0.2,0.5,0.6,0.8,1,1c0.4,0.2,1,0.3,1.8,0.5l2.7,0.3c0.2,0.2,0.3,0.6,0.3,1.2c0,0.5-0.1,0.9-0.3,1.1c-2.2-0.1-4.1-0.1-5.8-0.2
		c-1.7,0-3.3,0-4.8,0c-1.6,0-3.3,0-5.1,0c-1.8,0-3.9,0.1-6.2,0.2c-0.3-0.2-0.4-0.6-0.4-1.1c0-0.6,0.1-1,0.4-1.2l3-0.3
		c0.8-0.1,1.3-0.3,1.8-0.5c0.4-0.2,0.8-0.5,1-1c0.2-0.5,0.4-1.1,0.5-2c0.1-0.9,0.1-2.1,0.1-3.6v-29.2c0-0.8-0.1-1.3-0.2-1.6
		c-0.1-0.2-0.6-0.4-1.4-0.4h-4.1c-1.2,0-2.2,0.2-3,0.5c-0.8,0.3-1.6,0.8-2.2,1.4c-0.6,0.6-1.1,1.4-1.6,2.4c-0.5,1-0.9,2-1.4,3.2
		c-0.4,0.2-0.8,0.3-1.4,0.2c-0.5-0.1-0.9-0.4-1.1-0.8c0.7-2.3,1.2-4.4,1.5-6.4c0.3-2,0.5-3.6,0.7-4.9c0.3-0.2,0.6-0.3,0.9-0.3
		c0.4,0,0.7,0.1,0.9,0.3c0.1,0.3,0.2,0.5,0.3,0.7c0.1,0.2,0.4,0.3,0.7,0.4c0.4,0.1,0.9,0.2,1.6,0.2c0.7,0,1.7,0.1,2.9,0.1h24.7
		c1.1,0,2,0,2.7,0c0.7,0,1.3-0.1,1.7-0.2c0.4-0.1,0.8-0.2,1-0.4c0.2-0.2,0.4-0.5,0.6-0.8c0.3-0.1,0.6-0.2,0.9-0.2
		c0.2,0,0.4,0.1,0.6,0.2c0.2,0.1,0.3,0.2,0.4,0.3C171.9,305.5,171.7,306.2,171.6,307.1z M223.1,350c-3.3-0.1-6.5-0.2-9.6-0.2
		c-3.3,0-6.6,0.1-9.7,0.2c-0.3-0.2-0.4-0.6-0.4-1.1c0-0.6,0.1-1,0.4-1.2l1.5-0.2c0.8-0.1,1.3-0.3,1.8-0.5c0.4-0.2,0.8-0.5,1-1
		c0.2-0.5,0.4-1.2,0.5-2.1s0.1-2.1,0.1-3.6v-9.5c0-0.4,0-0.8,0-1.1c0-0.3-0.1-0.5-0.3-0.6c-0.2-0.1-0.5-0.2-0.8-0.2
		c-0.4,0-0.9,0-1.6,0H192c-0.7,0-1.2,0-1.6,0c-0.4,0-0.7,0.1-0.8,0.2c-0.2,0.1-0.3,0.3-0.3,0.6c0,0.3-0.1,0.6-0.1,1.1v9.5
		c0,1.5,0,2.8,0.1,3.6c0.1,0.9,0.2,1.6,0.5,2.1c0.2,0.5,0.6,0.8,1,1c0.4,0.2,1,0.3,1.8,0.5l2.1,0.3c0.3,0.2,0.4,0.6,0.4,1.2
		c0,0.5-0.1,0.9-0.4,1.1c-3.8-0.1-7.2-0.2-10.1-0.2c-3.2,0-6.5,0.1-9.9,0.2c-0.3-0.2-0.4-0.6-0.4-1.1c0-0.6,0.1-1,0.4-1.2l1.6-0.2
		c0.8-0.1,1.3-0.3,1.8-0.5c0.4-0.2,0.8-0.5,1-1c0.2-0.5,0.4-1.2,0.5-2.1s0.1-2.1,0.1-3.6v-24.7c0-1.5,0-2.8-0.1-3.6
		s-0.2-1.6-0.5-2.1c-0.2-0.5-0.6-0.8-1-1c-0.4-0.2-1-0.4-1.8-0.5l-1.6-0.2c-0.3-0.2-0.4-0.6-0.4-1.1c0-0.6,0.1-1,0.4-1.2
		c1.6,0.1,3.3,0.1,5,0.2c1.7,0,3.3,0,4.9,0c1.5,0,3,0,4.6,0c1.6,0,3.1-0.1,4.6-0.2c0.3,0.2,0.4,0.6,0.4,1.2c0,0.5-0.1,0.9-0.4,1.1
		l-1.4,0.2c-0.7,0.1-1.3,0.3-1.7,0.5c-0.4,0.2-0.8,0.5-1,1c-0.2,0.5-0.4,1.2-0.5,2.1c-0.1,0.9-0.1,2.1-0.1,3.6v7.7
		c0,0.5,0,0.9,0.1,1.1c0,0.3,0.2,0.5,0.3,0.6c0.2,0.1,0.5,0.2,0.8,0.2c0.4,0,0.9,0,1.6,0h13.8c0.7,0,1.2,0,1.6,0
		c0.4,0,0.7-0.1,0.8-0.2c0.2-0.1,0.3-0.3,0.3-0.6c0-0.3,0-0.6,0-1.1v-7.7c0-1.5,0-2.8-0.1-3.6s-0.2-1.6-0.5-2.1
		c-0.2-0.5-0.6-0.8-1-1c-0.4-0.2-1-0.3-1.8-0.5l-1.8-0.3c-0.3-0.2-0.4-0.6-0.4-1.1c0-0.6,0.1-1,0.4-1.2c3.6,0.1,7,0.2,10.1,0.2
		c3.2,0,6.3-0.1,9.3-0.2c0.3,0.2,0.4,0.6,0.4,1.2c0,0.5-0.1,0.9-0.4,1.1l-1.3,0.2c-0.8,0.1-1.4,0.3-1.8,0.5c-0.5,0.2-0.8,0.5-1.1,1
		c-0.2,0.5-0.4,1.2-0.5,2.1c-0.1,0.9-0.1,2.1-0.1,3.6v24.7c0,1.5,0,2.8,0.1,3.6c0.1,0.9,0.2,1.6,0.5,2.1c0.2,0.5,0.6,0.8,1.1,1
		c0.5,0.2,1.1,0.3,1.8,0.5l1.6,0.3c0.3,0.2,0.4,0.6,0.4,1.2C223.5,349.4,223.4,349.8,223.1,350z M264.4,342.3c-0.2,1-0.4,2.1-0.7,3
		c-0.3,1-0.6,1.9-0.9,2.8c-0.3,0.8-0.6,1.5-0.8,1.9c-0.9,0-1.9-0.1-3.1-0.1c-1.2,0-2.5,0-3.8,0c-1.3,0-2.7-0.1-4.2-0.1
		c-1.4,0-2.8,0-4.2,0h-8.6c-1.6,0-3.3,0-5,0c-1.7,0-3.9,0.1-6.4,0.2c-0.3-0.2-0.4-0.6-0.4-1.2c0-0.6,0.1-0.9,0.4-1.1l3.1-0.5
		c0.8-0.1,1.3-0.2,1.8-0.4c0.4-0.2,0.8-0.5,1-1c0.2-0.5,0.4-1.1,0.5-2c0.1-0.9,0.1-2.1,0.1-3.6v-24.7c0-1.5,0-2.7-0.1-3.6
		s-0.2-1.6-0.5-2c-0.2-0.5-0.6-0.8-1-1c-0.4-0.2-1-0.3-1.8-0.5l-1.7-0.3c-0.3-0.2-0.5-0.6-0.4-1.2c0-0.6,0.2-0.9,0.6-1.2
		c0.8,0,1.6,0.1,2.4,0.1c0.8,0,1.6,0,2.4,0c0.8,0,1.6,0.1,2.4,0.1c0.8,0,1.6,0,2.4,0h14c2.1,0,4,0,5.7,0c1.7,0,2.7-0.1,3.2-0.2
		c0,0.3,0,0.7,0.1,1.4c0.1,0.7,0.1,1.5,0.2,2.5c0.1,0.9,0.2,2,0.3,3.1c0.1,1.1,0.2,2.2,0.3,3.3c-0.1,0.4-0.5,0.6-1.1,0.6
		c-0.6,0.1-1-0.1-1.4-0.4c-0.4-1.1-0.8-2.2-1.2-3.1c-0.4-0.9-0.9-1.6-1.3-2.1c-0.6-0.6-1.4-1.1-2.5-1.5c-1-0.4-2.4-0.6-4-0.6h-5.3
		c-0.5,0-1,0-1.3,0.1c-0.3,0-0.5,0.1-0.7,0.3c-0.1,0.2-0.2,0.4-0.2,0.8c0,0.4,0,0.8,0,1.5v11.6c0,0.9,0.1,1.5,0.3,1.7
		c0.2,0.2,0.7,0.3,1.6,0.3h4.6c0.8,0,1.5,0,2.1-0.1c0.6-0.1,1-0.3,1.4-0.5c0.4-0.2,0.6-0.6,0.9-1.1c0.2-0.5,0.4-1.1,0.6-1.9l0.3-1.7
		c0.1-0.1,0.3-0.2,0.5-0.3c0.2-0.1,0.5-0.1,0.7-0.1c0.3,0,0.5,0,0.7,0.1c0.2,0.1,0.4,0.2,0.5,0.3c-0.1,2.1-0.2,4.5-0.2,7
		c0,2.6,0.1,4.9,0.2,7c-0.1,0.1-0.2,0.2-0.5,0.3c-0.2,0.1-0.5,0.1-0.7,0.1c-0.3,0-0.5,0-0.7-0.1c-0.2-0.1-0.4-0.2-0.5-0.3l-0.3-1.7
		c-0.2-0.8-0.4-1.4-0.6-1.9c-0.2-0.5-0.5-0.9-0.9-1.1c-0.4-0.3-0.8-0.4-1.4-0.5c-0.6-0.1-1.2-0.1-2.1-0.1h-4.6
		c-0.9,0-1.4,0.1-1.6,0.3c-0.2,0.2-0.3,0.8-0.3,1.8v7.9c0,1.5,0.1,2.8,0.2,3.9c0.2,1,0.4,1.8,0.8,2.4c0.2,0.3,0.5,0.6,0.8,0.8
		c0.3,0.2,0.7,0.4,1.2,0.5c0.5,0.1,1.2,0.2,2,0.3c0.8,0.1,1.8,0.1,3,0.1c1.5,0,2.7,0,3.7-0.1c1-0.1,2-0.4,2.9-0.9s1.7-1.3,2.5-2.3
		s1.6-2.5,2.6-4.3c0.3-0.4,0.7-0.5,1.3-0.4c0.6,0.1,1,0.3,1.1,0.7C264.7,340.3,264.6,341.3,264.4,342.3z M309.1,415.2h-4v-14.8
		h-18.9v14.8h-4V383h4v13.9h18.9V383h4V415.2z M339.7,415.2l-2.9-7.2h-16.1l-2.9,7.2h-4.6l13-32.3h5l13,32.3H339.7z M375.2,415.2
		h-4.4l-7.1-26l-7.1,26h-4.4l-9.2-32.3h4.4l7.2,26.9l7.4-26.9h3.3l7.4,26.9L380,383h4.5L375.2,415.2z M408.4,415.2l-12.2-14.5
		l-3.2,3.7v10.8h-4V383h4v16.7l14.3-16.7h5l-13.5,15.3l14.6,16.9H408.4z M411.2,347.1c-2.3,1.1-4.7,2-7.5,2.4
		c-2.7,0.5-5.8,0.7-9.3,0.7c-0.8,0-1.5,0-2.4-0.1c-0.8,0-1.6-0.1-2.4-0.1c-1.5-0.1-2.8-0.2-4.1-0.2c-3.1,0-6.6,0.1-10.3,0.2
		c-0.3-0.2-0.4-0.6-0.4-1.2c0-0.6,0.1-0.9,0.4-1.1l2.1-0.3c0.8-0.1,1.3-0.3,1.8-0.5c0.4-0.2,0.8-0.5,1-1c0.2-0.5,0.4-1.2,0.5-2
		c0.1-0.9,0.1-2.1,0.1-3.6v-23.5c0-1.6,0-2.9-0.1-3.8c0-1-0.2-1.7-0.4-2.3c-0.2-0.6-0.5-1-1-1.2c-0.4-0.2-1-0.4-1.8-0.5l-1.3-0.1
		c-0.2-0.1-0.3-0.3-0.4-0.5c-0.1-0.2-0.1-0.5-0.1-0.8c0-0.3,0-0.5,0.1-0.7c0.1-0.2,0.2-0.3,0.5-0.3c1.4-0.1,2.7-0.2,4.1-0.2
		c1.4-0.1,2.8-0.1,4.2-0.2c1.4-0.1,2.9-0.1,4.5-0.1c1.5,0,3.2,0,5,0c2.7,0,5.4,0.2,8.1,0.5c2.6,0.3,5.1,0.9,7.4,1.7
		c2.2,0.8,4.1,1.9,5.8,3.2c1.7,1.3,3.1,2.8,4.2,4.5c1.1,1.7,2,3.5,2.6,5.5c0.6,2,0.9,4,0.9,6.1c0,4.5-1,8.4-3,11.8
		S415,345.2,411.2,347.1z M439.1,386.5H422v10.4h16.8v3.6H422v11.1h17.1v3.6H418V383h21.1V386.5z M435.2,267.6
		c-1.2,1.5-3.1,2.5-5.2,2.5s-4-1-5.2-2.5c-3.7-1.3-6.3-4.8-6.3-9c0-1.9,0.5-3.6,1.5-5.1l4-13.6c0.8-2.7,1.2-5.5,1.1-8.4
		c0,0-0.4-11.5-0.4-15.3c-0.1-10.3,1.4-27.7,1.9-42.3c-17,1.8-56.1,4.8-67.3-4.7c-0.5-0.4-0.7-1.1-0.7-1.8c0-1.3,1.2-2.4,2.5-2.4
		c35.9-1.1,56-0.4,65.7,0.3c0-3-1.5-5.8-1.5-8.1c0-5.4-4.7-8.3-5.4-13.6c-2.1-14.5,1.6-58.7,1.6-58.7c0-0.5,0.4-0.8,0.8-0.8
		c0.5,0,0.8,0.4,0.8,0.8l-0.7,45.1c0,0.9,0.7,1.6,1.6,1.6c0.9,0,1.6-0.7,1.6-1.6l1.2-45.1c0-0.5,0.4-0.8,0.8-0.8
		c0.5,0,0.8,0.4,0.8,0.8l-0.1,45.1c0,0.9,0.7,1.6,1.6,1.6c0.9,0,1.6-0.7,1.6-1.6L431.5,85c0-0.5,0.4-0.8,0.8-0.8s0.8,0.4,0.8,0.8
		l1.2,45.1c0,0.9,0.7,1.6,1.6,1.6c0.9,0,1.6-0.7,1.6-1.6L436.9,85c0-0.5,0.4-0.8,0.8-0.8s0.8,0.4,0.8,0.8c0,0,2.8,44.1,1.6,58.7
		c-0.4,5.3-5.4,8-5.4,13.6c0,2.4-1.5,5.1-1.5,8.2c0,0.2,0,0.4,0,0.6c0.8,0.1,1.2,0.2,1.2,0.2c6.9,0,25.7-1.2,31.2-1.3c1,0,2,0,3,0
		l8.5,0.4c1.6,0.1,3.2,0,4.8-0.3l10.3-1.9c0.6-0.2,1.2-0.3,1.9-0.3c2,0,3.7,1.1,4.6,2.7c1.6,0.9,2.7,2.6,2.7,4.6
		c0,2-1.1,3.7-2.7,4.6c-0.9,1.6-2.6,2.7-4.6,2.7c-0.7,0-1.3-0.1-1.9-0.3L482,175c-1.6-0.3-3.2-0.4-4.8-0.3l-8.3,0.4
		c-1.2,0.1-2.5,0.1-3.7,0l-30.7-2.1c0,0-0.4,0-1,0.1c0.6,14.8,2,32.7,2,43.1c0,3.8-0.4,15.3-0.4,15.3c-0.1,2.8,0.3,5.6,1.1,8.4
		l4,13.6c0.9,1.5,1.5,3.2,1.5,5.1C441.5,262.7,438.9,266.2,435.2,267.6z M446.3,393.5l-1.8-1.5c1.6-1,3-3,3.1-4.5
		c-0.1,0-0.4,0.1-0.7,0.1c-1.4,0-2.3-1-2.3-2.5c0-1.4,1.1-2.6,2.6-2.6c1.6,0,3,1.3,3,3.7C450.2,389.1,448.5,391.9,446.3,393.5z
		 M467.1,415.8c-5.6,0-9.7-2.1-12.4-5.1l2.4-3c2.1,2.4,5.6,4.6,10.2,4.6c5.8,0,7.6-3.1,7.6-5.6c0-8.3-19.1-3.7-19.1-15.2
		c0-5.3,4.7-9,11.1-9c4.9,0,8.8,1.6,11.5,4.5l-2.4,3c-2.4-2.7-5.8-3.9-9.3-3.9c-3.9,0-6.6,2.1-6.6,5.1c0,7.3,19.1,3.1,19.1,15.1
		C479,411,475.8,415.8,467.1,415.8z M486.7,344.5c-0.5,1.9-1,3.2-1.5,3.9c-1.8,0.5-3.9,1-6.1,1.6c-2.3,0.6-4.7,0.9-7.3,0.9
		c-3.3,0-6.5-0.4-9.6-1.2c-3.1-0.8-5.9-2.1-8.3-3.8c-2.4-1.8-4.4-4.1-6-7c-1.6-2.8-2.4-6.3-2.4-10.4c0-4.1,0.8-7.5,2.3-10.4
		c1.5-2.9,3.4-5.3,5.7-7.2c2.4-2,5.2-3.5,8.4-4.4c3.2-1,6.5-1.5,10-1.5c1.7,0,3.2,0.1,4.7,0.3c1.5,0.2,2.8,0.4,3.9,0.6
		c1.1,0.2,2.2,0.4,3,0.6c0.9,0.2,1.5,0.3,2,0.3c0,0.3,0,0.8,0,1.6c0,0.8,0.1,1.6,0.1,2.6c0.1,1,0.2,2,0.3,3.1
		c0.1,1.1,0.2,2.1,0.4,3.1c-0.1,0.2-0.2,0.4-0.5,0.5c-0.2,0.1-0.5,0.2-0.7,0.2c-0.3,0-0.5,0-0.8,0c-0.2,0-0.4-0.1-0.6-0.3
		c-0.9-3.1-2.4-5.4-4.5-7.1c-2.1-1.6-4.8-2.4-8-2.4c-1.9,0-3.7,0.4-5.5,1.2c-1.8,0.8-3.4,2-4.9,3.6c-1.4,1.6-2.6,3.6-3.5,6.1
		c-0.9,2.4-1.4,5.3-1.4,8.6s0.4,6.2,1.3,8.7c0.9,2.5,2,4.6,3.5,6.3c1.4,1.7,3.1,3,5,3.9c1.9,0.9,3.8,1.3,5.8,1.3c2,0,3.7-0.3,5.2-1
		c1.5-0.6,2.8-1.5,3.9-2.5c1.1-1,2-2.1,2.7-3.3c0.7-1.2,1.3-2.4,1.7-3.5c0.3-0.3,0.7-0.4,1.3-0.3c0.6,0.1,1,0.3,1.2,0.7
		C487.6,340.5,487.2,342.7,486.7,344.5z M490.8,348.9c0-0.6,0.1-1,0.4-1.2l1.6-0.2c0.8-0.1,1.3-0.3,1.8-0.5c0.4-0.2,0.8-0.5,1-1
		c0.2-0.5,0.4-1.2,0.5-2.1c0.1-0.9,0.1-2.1,0.1-3.6v-24.7c0-1.5,0-2.8-0.1-3.6c-0.1-0.9-0.2-1.6-0.5-2.1c-0.2-0.5-0.6-0.8-1-1
		c-0.4-0.2-1-0.4-1.8-0.5l-1.6-0.2c-0.3-0.2-0.4-0.6-0.4-1.1c0-0.6,0.1-1,0.4-1.2c1.6,0.1,3.3,0.1,5,0.2c1.7,0,3.3,0,4.9,0
		c1.5,0,3,0,4.6,0c1.6,0,3.1-0.1,4.6-0.2c0.3,0.2,0.4,0.6,0.4,1.2c0,0.5-0.1,0.9-0.4,1.1l-1.4,0.2c-0.7,0.1-1.3,0.3-1.7,0.5
		c-0.4,0.2-0.8,0.5-1,1c-0.2,0.5-0.4,1.2-0.5,2.1s-0.1,2.1-0.1,3.6v7.7c0,0.5,0,0.9,0.1,1.1c0,0.3,0.2,0.5,0.3,0.6
		c0.2,0.1,0.5,0.2,0.8,0.2c0.4,0,0.9,0,1.6,0h13.8c0.7,0,1.2,0,1.6,0c0.4,0,0.7-0.1,0.8-0.2c0.2-0.1,0.3-0.3,0.3-0.6
		c0-0.3,0-0.6,0-1.1v-7.7c0-1.5,0-2.8-0.1-3.6c-0.1-0.9-0.2-1.6-0.5-2.1c-0.2-0.5-0.6-0.8-1-1c-0.4-0.2-1-0.3-1.8-0.5l-1.8-0.3
		c-0.3-0.2-0.4-0.6-0.4-1.1c0-0.6,0.1-1,0.4-1.2c3.6,0.1,7,0.2,10.1,0.2c3.2,0,6.3-0.1,9.3-0.2c0.3,0.2,0.4,0.6,0.4,1.2
		c0,0.5-0.1,0.9-0.4,1.1l-1.3,0.2c-0.8,0.1-1.4,0.3-1.8,0.5c-0.5,0.2-0.8,0.5-1.1,1c-0.2,0.5-0.4,1.2-0.5,2.1
		c-0.1,0.9-0.1,2.1-0.1,3.6v24.7c0,1.5,0,2.8,0.1,3.6c0.1,0.9,0.2,1.6,0.5,2.1c0.2,0.5,0.6,0.8,1.1,1c0.5,0.2,1.1,0.3,1.8,0.5
		l1.6,0.3c0.3,0.2,0.4,0.6,0.4,1.2c0,0.5-0.1,0.9-0.4,1.1c-3.3-0.1-6.5-0.2-9.6-0.2c-3.3,0-6.6,0.1-9.7,0.2
		c-0.3-0.2-0.4-0.6-0.4-1.1c0-0.6,0.1-1,0.4-1.2l1.5-0.2c0.8-0.1,1.3-0.3,1.8-0.5c0.4-0.2,0.8-0.5,1-1c0.2-0.5,0.4-1.2,0.5-2.1
		c0.1-0.9,0.1-2.1,0.1-3.6v-9.5c0-0.4,0-0.8,0-1.1c0-0.3-0.1-0.5-0.3-0.6c-0.2-0.1-0.5-0.2-0.8-0.2c-0.4,0-0.9,0-1.6,0h-13.8
		c-0.7,0-1.2,0-1.6,0c-0.4,0-0.7,0.1-0.8,0.2c-0.2,0.1-0.3,0.3-0.3,0.6c0,0.3-0.1,0.6-0.1,1.1v9.5c0,1.5,0,2.8,0.1,3.6
		s0.2,1.6,0.5,2.1c0.2,0.5,0.6,0.8,1,1c0.4,0.2,1,0.3,1.8,0.5l2.1,0.3c0.3,0.2,0.4,0.6,0.4,1.2c0,0.5-0.1,0.9-0.4,1.1
		c-3.8-0.1-7.2-0.2-10.1-0.2c-3.2,0-6.5,0.1-9.9,0.2C490.9,349.8,490.8,349.4,490.8,348.9z M512.2,415.2h-14.7V383h14.4
		c5.6,0,9,3.4,9,8.2c0,4.1-2.7,6.8-5.7,7.4c3.4,0.5,6.3,4.1,6.3,7.9C521.5,411.7,518.1,415.2,512.2,415.2z M550.9,415.2l-2.9-7.2
		H532l-2.9,7.2h-4.6l13-32.3h5l13,32.3H550.9z M570.1,401.6v13.6h-4v-13.6L553.3,383h4.7l10,15l10-15h4.7L570.1,401.6z M590.4,308.2
		l-1.2,0.3c-0.9,0.2-1.6,0.5-2.2,0.7c-0.6,0.3-1.1,0.8-1.4,1.5c-0.4,0.9-0.6,2.5-0.8,4.7c-0.2,2.3-0.2,4.7-0.2,7.4v7.4
		c0,3.1-0.3,6.1-0.8,8.8c-0.5,2.7-1.7,5.1-3.5,7.2c-1.5,1.5-3.3,2.7-5.6,3.5c-2.3,0.8-4.8,1.2-7.5,1.2c-2.5,0-4.9-0.3-7.1-0.8
		s-4.2-1.5-6-2.9c-1.7-1.4-3-3.4-3.7-5.8c-0.8-2.5-1.2-5.5-1.2-9.1v-16.6c0-1.5,0-2.8-0.1-3.6c-0.1-0.9-0.2-1.6-0.5-2.1
		c-0.2-0.5-0.6-0.8-1-1c-0.4-0.2-1-0.3-1.8-0.5l-1.7-0.3c-0.3-0.2-0.4-0.6-0.4-1.1c0-0.5,0.2-0.9,0.5-1.1c3.2,0.1,6.4,0.2,9.7,0.2
		c3.3,0,6.5-0.1,9.7-0.2c0.3,0.2,0.4,0.6,0.4,1.1c0,0.5-0.1,0.9-0.4,1.1l-1.6,0.3c-0.8,0.1-1.3,0.3-1.8,0.5c-0.4,0.2-0.8,0.5-1,1
		c-0.2,0.5-0.4,1.2-0.5,2.1c-0.1,0.9-0.1,2.1-0.1,3.6V331c0,1.9,0.1,3.9,0.3,5.8c0.2,1.9,0.7,3.7,1.4,5.2c0.7,1.5,1.8,2.8,3.3,3.8
		c1.5,1,3.4,1.5,6,1.5c2.1,0,3.9-0.4,5.3-1.3c1.4-0.9,2.6-2,3.4-3.5c0.9-1.5,1.5-3.3,1.8-5.3c0.4-2,0.5-4.1,0.5-6.4v-8
		c0-2.7-0.1-5.2-0.2-7.4c-0.2-2.3-0.4-3.8-0.8-4.7c-0.3-0.7-0.8-1.2-1.5-1.5c-0.7-0.3-1.5-0.5-2.4-0.7l-1.8-0.3
		c-0.3-0.3-0.4-0.7-0.4-1.2c0-0.5,0.1-0.9,0.4-1.1c1.8,0.1,3.4,0.1,4.8,0.2c1.4,0,2.7,0,4.1,0c2.4,0,4.9-0.1,7.4-0.2
		c0.2,0.2,0.3,0.6,0.4,1.1C590.8,307.5,590.6,307.9,590.4,308.2z M636.9,349.6c-0.5,0.2-1.3,0.4-2.3,0.5c-1,0.1-2,0.1-3,0.1
		c-3,0-5.6-0.6-7.6-1.7c-2-1.1-3.8-2.9-5.2-5.3c-1.1-1.8-2-3.5-2.8-5.1c-0.8-1.7-1.6-3.4-2.4-5.1c-0.4-0.9-0.9-1.5-1.4-1.8
		c-0.6-0.3-1.2-0.5-2.1-0.5c-1.1,0-1.8,0.1-2.1,0.2c-0.2,0.2-0.4,0.6-0.4,1.2v8.1c0,1.5,0,2.8,0.1,3.6c0.1,0.9,0.2,1.5,0.5,2
		c0.2,0.5,0.6,0.8,1,1c0.4,0.2,1,0.3,1.8,0.5l1.8,0.3c0.2,0.2,0.3,0.6,0.3,1.1c0,0.6-0.1,1-0.3,1.2c-1.8-0.1-3.4-0.1-5-0.2
		c-1.6,0-3.1,0-4.7,0c-1.7,0-3.3,0-4.8,0c-1.5,0-3.1,0.1-4.9,0.2c-0.3-0.2-0.4-0.6-0.4-1.2c0-0.6,0.1-0.9,0.4-1.1l1.8-0.3
		c0.8-0.1,1.3-0.3,1.8-0.5c0.4-0.2,0.8-0.5,1-1c0.2-0.5,0.4-1.2,0.5-2c0.1-0.9,0.1-2.1,0.1-3.6v-23.5c0-1.6,0-2.9-0.1-3.9
		c0-1-0.2-1.8-0.4-2.3c-0.2-0.5-0.5-0.9-0.9-1.1c-0.4-0.2-0.9-0.3-1.6-0.4l-1.8-0.3c-0.4-0.2-0.5-0.6-0.5-1.2c0-0.6,0.2-1,0.6-1.2
		c2.5-0.2,5.1-0.3,7.7-0.4c2.6-0.1,5.5-0.2,8.7-0.2c2.8,0,5.4,0.2,7.7,0.6c2.3,0.4,4.1,1,5.3,1.8c3.9,2.3,5.8,5.6,5.8,9.8
		c0,1.5-0.2,2.7-0.7,3.8c-0.4,1.1-1,2-1.7,2.8c-0.7,0.8-1.4,1.4-2.3,2c-0.8,0.5-1.6,1-2.4,1.4c-0.4,0.2-0.5,0.4-0.6,0.6
		c0,0.2,0.1,0.5,0.2,0.9c2.2,4.5,4,8,5.6,10.6c1.5,2.6,3.1,4.6,4.7,6c0.9,0.7,1.7,1.2,2.5,1.4c0.8,0.2,1.4,0.4,1.9,0.4
		c0.3,0.2,0.5,0.5,0.5,0.8C637.1,349.1,637.1,349.4,636.9,349.6z M676.9,344.5c-0.5,1.9-1,3.2-1.5,3.9c-1.8,0.5-3.9,1-6.1,1.6
		c-2.3,0.6-4.7,0.9-7.3,0.9c-3.3,0-6.5-0.4-9.6-1.2c-3.1-0.8-5.9-2.1-8.3-3.8c-2.4-1.8-4.4-4.1-6-7c-1.6-2.8-2.4-6.3-2.4-10.4
		c0-4.1,0.8-7.5,2.3-10.4c1.5-2.9,3.4-5.3,5.7-7.2c2.4-2,5.2-3.5,8.4-4.4c3.2-1,6.5-1.5,10-1.5c1.7,0,3.2,0.1,4.7,0.3
		c1.5,0.2,2.8,0.4,3.9,0.6c1.1,0.2,2.2,0.4,3,0.6c0.9,0.2,1.5,0.3,2,0.3c0,0.3,0,0.8,0,1.6c0,0.8,0.1,1.6,0.1,2.6
		c0.1,1,0.2,2,0.3,3.1c0.1,1.1,0.2,2.1,0.4,3.1c-0.1,0.2-0.2,0.4-0.5,0.5c-0.2,0.1-0.5,0.2-0.7,0.2c-0.3,0-0.5,0-0.8,0
		c-0.2,0-0.4-0.1-0.6-0.3c-0.9-3.1-2.4-5.4-4.5-7.1c-2.1-1.6-4.8-2.4-8-2.4c-1.9,0-3.7,0.4-5.5,1.2c-1.8,0.8-3.4,2-4.9,3.6
		c-1.4,1.6-2.6,3.6-3.5,6.1c-0.9,2.4-1.4,5.3-1.4,8.6s0.4,6.2,1.3,8.7c0.9,2.5,2,4.6,3.5,6.3c1.4,1.7,3.1,3,5,3.9
		c1.9,0.9,3.8,1.3,5.8,1.3c2,0,3.7-0.3,5.2-1c1.5-0.6,2.8-1.5,3.9-2.5c1.1-1,2-2.1,2.7-3.3c0.7-1.2,1.3-2.4,1.7-3.5
		c0.3-0.3,0.7-0.4,1.3-0.3c0.6,0.1,1,0.3,1.2,0.7C677.7,340.5,677.3,342.7,676.9,344.5z M729.6,350c-3.3-0.1-6.5-0.2-9.6-0.2
		c-3.3,0-6.6,0.1-9.7,0.2c-0.3-0.2-0.4-0.6-0.4-1.1c0-0.6,0.1-1,0.4-1.2l1.5-0.2c0.8-0.1,1.3-0.3,1.8-0.5c0.4-0.2,0.8-0.5,1-1
		c0.2-0.5,0.4-1.2,0.5-2.1c0.1-0.9,0.1-2.1,0.1-3.6v-9.5c0-0.4,0-0.8,0-1.1c0-0.3-0.1-0.5-0.3-0.6c-0.2-0.1-0.5-0.2-0.8-0.2
		c-0.4,0-0.9,0-1.6,0h-13.8c-0.7,0-1.2,0-1.6,0c-0.4,0-0.7,0.1-0.8,0.2c-0.2,0.1-0.3,0.3-0.3,0.6c0,0.3-0.1,0.6-0.1,1.1v9.5
		c0,1.5,0,2.8,0.1,3.6c0.1,0.9,0.2,1.6,0.5,2.1c0.2,0.5,0.6,0.8,1,1c0.4,0.2,1,0.3,1.8,0.5l2.1,0.3c0.3,0.2,0.4,0.6,0.4,1.2
		c0,0.5-0.1,0.9-0.4,1.1c-3.8-0.1-7.2-0.2-10.1-0.2c-3.2,0-6.5,0.1-9.9,0.2c-0.3-0.2-0.4-0.6-0.4-1.1c0-0.6,0.1-1,0.4-1.2l1.6-0.2
		c0.8-0.1,1.3-0.3,1.8-0.5c0.4-0.2,0.8-0.5,1-1c0.2-0.5,0.4-1.2,0.5-2.1c0.1-0.9,0.1-2.1,0.1-3.6v-24.7c0-1.5,0-2.8-0.1-3.6
		c-0.1-0.9-0.2-1.6-0.5-2.1c-0.2-0.5-0.6-0.8-1-1c-0.4-0.2-1-0.4-1.8-0.5l-1.6-0.2c-0.3-0.2-0.4-0.6-0.4-1.1c0-0.6,0.1-1,0.4-1.2
		c1.6,0.1,3.3,0.1,5,0.2c1.7,0,3.3,0,4.9,0c1.5,0,3,0,4.6,0c1.6,0,3.1-0.1,4.6-0.2c0.3,0.2,0.4,0.6,0.4,1.2c0,0.5-0.1,0.9-0.4,1.1
		l-1.4,0.2c-0.7,0.1-1.3,0.3-1.7,0.5c-0.4,0.2-0.8,0.5-1,1c-0.2,0.5-0.4,1.2-0.5,2.1c-0.1,0.9-0.1,2.1-0.1,3.6v7.7
		c0,0.5,0,0.9,0.1,1.1c0,0.3,0.2,0.5,0.3,0.6c0.2,0.1,0.5,0.2,0.8,0.2c0.4,0,0.9,0,1.6,0h13.8c0.7,0,1.2,0,1.6,0
		c0.4,0,0.7-0.1,0.8-0.2c0.2-0.1,0.3-0.3,0.3-0.6c0-0.3,0-0.6,0-1.1v-7.7c0-1.5,0-2.8-0.1-3.6c-0.1-0.9-0.2-1.6-0.5-2.1
		c-0.2-0.5-0.6-0.8-1-1c-0.4-0.2-1-0.3-1.8-0.5l-1.8-0.3c-0.3-0.2-0.4-0.6-0.4-1.1c0-0.6,0.1-1,0.4-1.2c3.6,0.1,7,0.2,10.1,0.2
		c3.2,0,6.3-0.1,9.3-0.2c0.3,0.2,0.4,0.6,0.4,1.2c0,0.5-0.1,0.9-0.4,1.1l-1.3,0.2c-0.8,0.1-1.4,0.3-1.8,0.5c-0.5,0.2-0.8,0.5-1.1,1
		c-0.2,0.5-0.4,1.2-0.5,2.1c-0.1,0.9-0.1,2.1-0.1,3.6v24.7c0,1.5,0,2.8,0.1,3.6c0.1,0.9,0.2,1.6,0.5,2.1c0.2,0.5,0.6,0.8,1.1,1
		c0.5,0.2,1.1,0.3,1.8,0.5l1.6,0.3c0.3,0.2,0.4,0.6,0.4,1.2C730,349.4,729.9,349.8,729.6,350z"/>
</g>
<g>
	<g>
		<path class="st1" d="M492.3,163l-10.3,1.9c-1.6,0.3-3.2,0.4-4.8,0.3l-8.5-0.4c-1-0.1-2-0.1-3,0c-5.5,0.2-24.2,1.3-31.2,1.3
			c0,0-17.3-2.8-73.4-1.1c-1.3,0-2.5,1.1-2.5,2.4c0,0.7,0.2,1.3,0.7,1.8c14.4,12.2,75.3,3.8,75.3,3.8l30.7,2.1
			c1.2,0.1,2.5,0.1,3.7,0l8.3-0.4c1.6-0.1,3.2,0,4.8,0.3l10.3,1.9c0.6,0.2,1.2,0.3,1.9,0.3c2,0,3.7-1.1,4.6-2.7
			c1.6-0.9,2.7-2.6,2.7-4.6c0-2-1.1-3.7-2.7-4.6c-0.9-1.6-2.6-2.7-4.6-2.7C493.5,162.7,492.9,162.8,492.3,163z"/>
	</g>
	<path class="st1" d="M440.1,253.5l-4-13.6c-0.8-2.7-1.2-5.5-1.1-8.4c0,0,0.4-11.5,0.4-15.3c0.1-12.3-2-35.1-2.2-50.8
		c0-3.1,1.5-5.7,1.5-8.2c0-5.6,5-8.3,5.4-13.6c1.2-14.6-1.6-58.7-1.6-58.7c0-0.5-0.4-0.8-0.8-0.8c-0.5,0-0.8,0.4-0.8,0.8l0.7,45.1
		c0,0.9-0.7,1.6-1.6,1.6s-1.6-0.7-1.6-1.6L433.1,85c0-0.5-0.4-0.8-0.8-0.8c-0.5,0-0.8,0.4-0.8,0.8l0.1,45.1c0,0.9-0.7,1.6-1.6,1.6
		s-1.6-0.7-1.6-1.6l0.1-45.1c0-0.5-0.4-0.8-0.8-0.8c-0.5,0-0.8,0.4-0.8,0.8l-1.2,45.1c0,0.9-0.7,1.6-1.6,1.6s-1.6-0.7-1.6-1.6
		l0.7-45.1c0-0.5-0.4-0.8-0.8-0.8c-0.5,0-0.8,0.4-0.8,0.8c0,0-3.8,44.2-1.6,58.7c0.8,5.3,5.4,8.2,5.4,13.6c0,2.4,1.5,5.2,1.5,8.2
		c-0.2,15.7-2.3,38.4-2.2,50.8c0,3.8,0.4,15.3,0.4,15.3c0.1,2.8-0.3,5.6-1.1,8.4l-4,13.6c-0.9,1.5-1.5,3.2-1.5,5.1
		c0,4.1,2.6,7.7,6.3,9c1.2,1.5,3.1,2.4,5.2,2.4s4-1,5.2-2.4c3.7-1.3,6.3-4.8,6.3-9C441.5,256.7,441,255,440.1,253.5z"/>
</g>
</svg>
